<svg width="32" height="32" viewBox="0 0 32 32" fill="none" xmlns="http://www.w3.org/2000/svg">
<path d="M16 24H16.0133M12.2293 20.2293C13.2295 19.2295 14.5858 18.6678 16 18.6678C17.4142 18.6678 18.7705 19.2295 19.7707 20.2293M19.16 13.8107C20.8168 14.328 22.3216 15.2436 23.5426 16.4773M13.5467 8.18667C16.0335 7.80107 18.5761 8.00749 20.9682 8.78915C23.3602 9.57082 25.5341 10.9057 27.3134 12.6853M4 4L28 28M8.45732 16.4573C9.87122 15.0394 11.6573 14.0503 13.6093 13.604L8.45732 16.4573ZM4.68669 12.6867C6.05127 11.3192 7.65221 10.2102 9.41202 9.41333L4.68669 12.6867Z" stroke="white" stroke-width="2" stroke-linecap="round" stroke-linejoin="round"/>
</svg>
