<svg width="80" height="151" viewBox="0 0 80 151" fill="none" xmlns="http://www.w3.org/2000/svg">
<g clip-path="url(#clip0_7049_141)">
<mask id="path-1-inside-1_7049_141" fill="white">
<path d="M5.20392 0C9.85581 0 13 5.34811 13 10V10V45C13 56.0457 21.9543 65 33 65H70C75.5228 65 80 69.4772 80 75V131C80 142.046 71.0457 151 60 151H-549C-560.046 151 -569 142.046 -569 131V20C-569 8.95431 -560.046 0 -549 0H5.20392Z"/>
</mask>
<path d="M13 45L12 45V45L13 45ZM33 65L33 66H33V65ZM80 131L81 131V131H80ZM-569 20L-570 20V20H-569ZM13 10H12V45H13H14V10H13ZM13 45L12 45C12 56.598 21.402 66 33 66L33 65L33 64C22.5066 64 14 55.4934 14 45L13 45ZM33 65V66H70V65V64H33V65ZM80 75H79V131H80H81V75H80ZM80 131L79 131C79 141.493 70.4934 150 60 150V151V152C71.598 152 81 142.598 81 131L80 131ZM60 151V150H-549V151V152H60V151ZM-549 151V150C-559.493 150 -568 141.493 -568 131H-569H-570C-570 142.598 -560.598 152 -549 152V151ZM-569 131H-568V20H-569H-570V131H-569ZM-569 20L-568 20C-568 9.50659 -559.493 1 -549 1V0V-1C-560.598 -1 -570 8.40202 -570 20L-569 20ZM-549 0V1H5.20392V0V-1H-549V0ZM70 65V66C74.9706 66 79 70.0294 79 75H80H81C81 68.9249 76.0751 64 70 64V65ZM13 10H14C14 7.46843 13.1505 4.76506 11.6607 2.6751C10.1689 0.5822 7.94873 -1 5.20392 -1V0V1C7.111 1 8.78889 2.09185 10.0321 3.83598C11.2774 5.58305 12 7.87967 12 10H13Z" fill="white" mask="url(#path-1-inside-1_7049_141)"/>
</g>
<defs>
<clipPath id="clip0_7049_141">
<rect width="80" height="151" fill="white"/>
</clipPath>
</defs>
</svg>
