<svg width="68" height="71" viewBox="0 0 68 71" fill="none" xmlns="http://www.w3.org/2000/svg">
<g clip-path="url(#clip0_7018_142)">
<path d="M348 94.989C348 94.9951 347.995 95 347.989 95V95C347.983 95 347.978 94.9953 347.978 94.9894C347.448 81.6509 336.469 71 323 71H64.5179C59.4543 71 55.295 67.1673 53.8111 62.3261C47.5414 41.8724 28.508 27 6 27H-1021C-1043.51 27 -1062.54 41.8724 -1068.81 62.3261C-1070.3 67.1673 -1074.45 71 -1079.52 71H-1547C-1560.47 71 -1571.45 81.6509 -1571.98 94.9894C-1571.98 94.9953 -1571.98 95 -1571.99 95V95C-1572 95 -1572 94.9951 -1572 94.989V10C-1572 4.47715 -1567.52 0 -1562 0H338C343.523 0 348 4.47715 348 10V94.989Z" fill="#7027E2"/>
</g>
<defs>
<clipPath id="clip0_7018_142">
<rect width="68" height="71" fill="white"/>
</clipPath>
</defs>
</svg>
