<svg width="26" height="24" viewBox="0 0 26 24" fill="none" xmlns="http://www.w3.org/2000/svg">
<g clip-path="url(#clip0_7018_142)">
<path d="M26 23.989C26 23.9951 25.9951 24 25.989 24C25.9832 24 25.9783 23.9953 25.9781 23.9894C25.4478 10.6509 14.4686 0 1 0H-257.482C-262.546 0 -266.705 -3.83269 -268.189 -8.67389C-274.458 -29.1276 -293.492 -44 -316 -44H-1343C-1365.51 -44 -1384.54 -29.1276 -1390.81 -8.67388C-1392.3 -3.83268 -1396.45 0 -1401.52 0H-1869C-1882.47 0 -1893.45 10.6509 -1893.98 23.9894C-1893.98 23.9953 -1893.98 24 -1893.99 24C-1894 24 -1894 23.9951 -1894 23.989V-61C-1894 -66.5228 -1889.52 -71 -1884 -71H16C21.5228 -71 26 -66.5228 26 -61V23.989Z" fill="#7027E2"/>
</g>
<defs>
<clipPath id="clip0_7018_142">
<rect width="26" height="24" fill="white"/>
</clipPath>
</defs>
</svg>
