<svg width="1151" height="109" viewBox="0 0 1151 109" fill="none" xmlns="http://www.w3.org/2000/svg">
<g clip-path="url(#clip0_7018_142)">
<path d="M1431 94.989C1431 94.9951 1431 95 1430.99 95V95C1430.98 95 1430.98 94.9953 1430.98 94.9894C1430.45 81.6509 1419.47 71 1406 71H1147.52C1142.45 71 1138.3 67.1673 1136.81 62.3261C1130.54 41.8724 1111.51 27 1089 27H62C39.492 27 20.4585 41.8724 14.1889 62.3261C12.705 67.1673 8.54564 71 3.48211 71H-464C-477.469 71 -488.448 81.6509 -488.978 94.9894C-488.978 94.9953 -488.983 95 -488.989 95V95C-488.995 95 -489 94.9951 -489 94.989V10C-489 4.47715 -484.523 0 -479 0H1421C1426.52 0 1431 4.47715 1431 10V94.989Z" fill="#7027E2"/>
</g>
<defs>
<clipPath id="clip0_7018_142">
<rect width="1151" height="109" fill="white"/>
</clipPath>
</defs>
</svg>
